<svg width="36" height="36" >
    <g xmlns="http://www.w3.org/2000/svg" fill-rule="evenodd" clip-rule="evenodd">
        <path
            d="M30.877 15.418c0 3.497-1.193 6.716-3.14 9.3l6.716 6.715a2.518 2.518 0 010 3.576c-.477.517-1.152.755-1.788.755a2.6 2.6 0 01-1.788-.755l-6.756-6.755-.08-.08a15.37 15.37 0 01-8.623 2.663C6.914 30.837 0 23.922 0 15.418 0 6.914 6.914 0 15.418 0s15.459 6.914 15.459 15.418zM15.412 29.823c7.982 0 14.452-6.454 14.452-14.416 0-7.961-6.47-14.415-14.452-14.415S.96 7.446.96 15.407c0 7.962 6.47 14.416 14.452 14.416z"
            fill="#1E2537" />
        <path
            d="M23.218 9.885c.953 0 1.726-.772 1.726-1.725a1.726 1.726 0 00-3.452 0c0 .953.773 1.725 1.726 1.725zm-1.786-2.08l-4.378-1.03 4.378 1.03zm-4.378-1.03l-1.7 5.189 1.7-5.189zm1.734 14.704c-.864.864-2.257 1.03-3.426 1.03-1.168 0-2.561-.166-3.425-1.03h6.851zM5.53 17.494a2.19 2.19 0 112.556-3.414L5.53 17.494zm19.508-4.071a2.189 2.189 0 00-2.434.702l2.504 3.405a2.19 2.19 0 00-.07-4.107z"
            fill="#fff" />
        <path
            d="M4.968 18.5c0 3.806 4.642 6.903 10.347 6.903 5.705 0 10.347-3.096 10.348-6.903 0-.246-.02-.488-.057-.727a2.603 2.603 0 001.332-2.284 2.624 2.624 0 00-2.621-2.621 2.607 2.607 0 00-1.777.694c-1.73-1.127-4.048-1.854-6.614-1.954l1.416-4.32 3.718.875a2.16 2.16 0 002.158 2.155 2.16 2.16 0 002.158-2.158 2.16 2.16 0 00-2.158-2.159 2.163 2.163 0 00-1.986 1.314l-4.075-.96-.009-.002-.381-.09-1.749 5.336c-2.663.05-5.077.775-6.871 1.926a2.615 2.615 0 00-1.737-.658 2.624 2.624 0 00-1.376 4.854 4.669 4.669 0 00-.066.779zm.865 0c0-.275.03-.55.087-.818l.005-.01.001-.004a.428.428 0 00.037-.166c.3-1.146 1.11-2.185 2.275-3.017a.441.441 0 00.173-.12c1.73-1.172 4.186-1.904 6.904-1.904 2.746 0 5.222.747 6.955 1.939.05.06.113.105.186.131 1.14.831 1.93 1.863 2.219 3 0 .064.014.129.043.187.052.256.079.517.079.782 0 3.33-4.254 6.038-9.482 6.038S5.833 21.83 5.833 18.5zm17.43-4.416c1.003.802 1.739 1.757 2.115 2.806a1.758 1.758 0 00-2.115-2.806zm-18.61 1.405a1.758 1.758 0 012.76-1.442c-1.006.795-1.75 1.742-2.138 2.782a1.758 1.758 0 01-.621-1.34zm18.565-8.623a1.295 1.295 0 000 2.587c.712 0 1.293-.58 1.293-1.293s-.58-1.294-1.293-1.294zM11.63 21.784c.778.779 1.999 1.157 3.731 1.157 1.732 0 2.953-.378 3.731-1.157a.432.432 0 10-.61-.611c-.61.608-1.63.903-3.12.903-1.492 0-2.512-.296-3.12-.903a.433.433 0 10-.612.611z"
            fill="#1E2537" />
        <path
            d="M10.261 17.243c0-.881.74-1.62 1.62-1.62.88 0 1.595.739 1.595 1.62 0 .88-.714 1.595-1.595 1.595s-1.62-.715-1.62-1.595zm6.987 0c0-.882.74-1.62 1.621-1.62s1.596.738 1.596 1.62c0 .88-.714 1.595-1.596 1.595-.881 0-1.621-.714-1.621-1.595z"
            fill="#FF4500" />
    </g>
</svg>